<svg xmlns="http://www.w3.org/2000/svg" width="48" height="48" fill="none" viewBox="0 0 48 48">
    <path fill="#979197" fill-rule="evenodd" d="M24 21.194l-5.608-5.608c-.778-.778-2.035-.779-2.81-.004-.78.78-.773 2.033.004 2.81L21.194 24l-5.608 5.608c-.778.778-.779 2.035-.004 2.81.78.78 2.033.773 2.81-.004L24 26.806l5.608 5.608c.778.778 2.035.779 2.81.004.78-.78.773-2.033-.004-2.81L26.806 24l5.608-5.608c.778-.778.779-2.035.004-2.81-.78-.78-2.033-.773-2.81.004L24 21.194z" clip-rule="evenodd"/>
</svg>
